<svg xmlns="http://www.w3.org/2000/svg" viewBox="0 0 400 300">
<defs><linearGradient id="sky" x1="0" y1="0" x2="0" y2="1"><stop offset="0%" stop-color="#4a1500"/><stop offset="50%" stop-color="#8b4513"/><stop offset="100%" stop-color="#d4a060"/></linearGradient></defs>
<rect width="400" height="300" fill="url(#sky)"/>
<circle cx="350" cy="60" r="30" fill="#ff6600" opacity="0.4"/>
<circle cx="350" cy="60" r="20" fill="#ff8800" opacity="0.6"/>
<path d="M0 200 Q50 180 100 200 Q150 180 200 200 Q250 220 300 200 Q350 180 400 200 L400 300 L0 300Z" fill="#c49040"/>
<path d="M0 220 Q80 200 160 220 Q240 240 320 220 Q360 200 400 220 L400 300 L0 300Z" fill="#b88030"/>
<path d="M180 200 L185 170 L190 175 L195 155 L200 175 L205 170 L210 200" fill="#2d1810" opacity="0.5"/>
<circle cx="100" cy="250" r="3" fill="#d4a060" opacity="0.3"/>
<circle cx="300" cy="240" r="2" fill="#d4a060" opacity="0.2"/>
</svg>