<svg xmlns="http://www.w3.org/2000/svg" viewBox="0 0 400 300">
<defs><linearGradient id="sky" x1="0" y1="0" x2="0" y2="1"><stop offset="0%" stop-color="#000022"/><stop offset="100%" stop-color="#0a0a2e"/></linearGradient></defs>
<rect width="400" height="300" fill="url(#sky)"/>
<circle cx="320" cy="50" r="20" fill="#f5e9c8" opacity="0.4"/>
<circle cx="310" cy="45" r="18" fill="#000022"/>
<circle cx="50" cy="30" r="1.5" fill="#fff" opacity="0.6"/>
<circle cx="120" cy="60" r="1" fill="#fff" opacity="0.4"/>
<circle cx="200" cy="20" r="1.2" fill="#fff" opacity="0.5"/>
<circle cx="280" cy="40" r="0.8" fill="#fff" opacity="0.3"/>
<circle cx="370" cy="80" r="1" fill="#fff" opacity="0.4"/>
<circle cx="90" cy="90" r="1.3" fill="#fff" opacity="0.5"/>
<circle cx="150" cy="45" r="0.7" fill="#fff" opacity="0.3"/>
<rect x="0" y="230" width="400" height="70" fill="#0a0a15"/>
<path d="M0 240 Q50 220 100 240 Q150 260 200 240 Q250 220 300 240 Q350 260 400 240 L400 300 L0 300Z" fill="#0d0d20"/>
<rect x="160" y="200" width="80" height="40" fill="#1a0a2e" opacity="0.5" rx="4"/>
</svg>